<?xml version="1.0" encoding="utf-8"?>

<!-- Uploaded to: SVG Repo, www.svgrepo.com, Generator: SVG Repo Mixer Tools -->
<svg version="1.1" id="Icons" xmlns="http://www.w3.org/2000/svg" xmlns:xlink="http://www.w3.org/1999/xlink" 
     viewBox="0 0 32 32" xml:space="preserve">
  <style type="text/css">
    .st0{fill:none;stroke:#000000;stroke-width:2;stroke-linecap:round;stroke-linejoin:round;stroke-miterlimit:10;}
  </style>
  <path class="st0" d="M21.7,18.8l-2.9,2.9c-2.3,2.3-6.1,2.3-8.5,0l0,0c-2.3-2.3-2.3-6.1,0-8.5l2.9-2.9c2.3-2.3,6.1-2.3,8.5,0l0,0
	C24.1,12.7,24.1,16.5,21.7,18.8z"/>
  <path class="st0" d="M4,21.1L4,21.1c1.3,3.1,3.8,5.6,6.9,6.9l0,0l-0.6-6.3L4,21.1z"/>
  <path class="st0" d="M28,10.9L28,10.9c-1.3-3.1-3.8-5.6-6.9-6.9l0,0l0.6,6.3L28,10.9z"/>
  <line class="st0" x1="16" y1="8.7" x2="16" y2="23.3"/>
  <line class="st0" x1="20" y1="9.1" x2="20" y2="20.6"/>
  <line class="st0" x1="12" y1="11.5" x2="12" y2="22.9"/>
  
  <!-- Inserted SVG content with circle -->
  <svg xmlns="http://www.w3.org/2000/svg" width="100%" height="100%" viewBox="0 0 100 100">
    <circle cx="50" cy="50" r="40" stroke="black" stroke-width="3" fill="white" />
  </svg>
</svg>
